:SAMPLES-PER-SECOND 30
:FRAME-RANGE 1-1086
:FULLY-SPECIFIED
:DEGREES
679
root  85.7353 39.185 20.319 177.65 23.9984 178.266
RightUpLeg  -7.32206 -7.86997 -5.8288
RightLeg  40.0639 0.186235 -0.105122
RightFoot  -8.50825 -0.536328 19.1637
RightToes  -5.8209e-011 0 -3.6325e-017
Spine  3.35484 -0.591864 -7.08677
Spine1  3.56586 -1.34658 1.10179
HEad  5.62933 -3.6235 2.31745
LeftShoulder1  1.90021 -2.54479 -25.2398
LeftArm  8.18985 -25.008 -31.6199
LeftForeArm  -14.5501 -56.5934 -18.4746
LeftHand  -0.273082 6.88465 -16.4697
RightShoulder  8.25286 15.6842 36.9811
RightArm  -3.48928 9.40908 9.25629
RightForeArm  -31.3665 57.9771 20.6358
RightHand  -0.523351 -7.94492 20.2746
LeftUpLeg  -13.8631 8.76374 0.0416652
LeftLeg  12.9077 12.687 -1.11311
LeftFoot  2.59644 -0.123612 0.882733
LeftToes  5.72949e-011 5.22586e-011 2.45399e-011
680
root  85.6658 39.0562 19.9545 177.341 25.169 177.323
RightUpLeg  -12.2273 -7.41351 -7.63459
RightLeg  47.6518 0.421605 0.172114
RightFoot  -3.77337 -1.39758 20.5326
RightToes  -5.8209e-011 0 -3.6325e-017
Spine  4.15911 -0.438169 -8.38767
Spine1  3.37781 -1.24783 0.688352
HEad  5.81329 -3.97056 2.34505
LeftShoulder1  1.87128 -2.62759 -24.3032
LeftArm  7.84728 -26.384 -31.5246
LeftForeArm  -15.2129 -56.5029 -18.456
LeftHand  -0.313195 7.15518 -16.4201
RightShoulder  8.34931 16.3995 35.9349
RightArm  -3.72343 10.606 9.32394
RightForeArm  -32.6006 57.5229 20.3264
RightHand  -0.568516 -8.18512 20.2915
LeftUpLeg  -14.1192 8.95342 -0.760347
LeftLeg  14.6239 13.7159 -0.888993
LeftFoot  1.08223 -0.106684 0.92018
LeftToes  5.72949e-011 5.22586e-011 2.45399e-011
681
root  85.6139 38.9379 19.6367 177.313 26.0196 176.646
RightUpLeg  -16.3048 -7.06392 -8.7802
RightLeg  52.1841 -0.672074 -1.29724
RightFoot  -1.59862 -1.61297 18.6435
RightToes  -5.8209e-011 0 -3.6325e-017
Spine  4.76495 -0.413854 -9.27818
Spine1  3.2454 -1.23128 0.314826
HEad  6.28563 -4.52675 2.25535
LeftShoulder1  1.84891 -2.67963 -23.6535
LeftArm  7.59379 -27.912 -31.3937
LeftForeArm  -16.2612 -55.9136 -18.1045
LeftHand  -0.343159 7.34937 -16.4543
RightShoulder  8.48204 17.2118 34.9347
RightArm  -4.02442 11.6861 9.47372
RightForeArm  -33.9633 56.8552 19.8645
RightHand  -0.597751 -8.34665 20.2602
LeftUpLeg  -14.6736 9.20253 -1.44669
LeftLeg  16.3045 14.3543 -0.540738
LeftFoot  -0.347029 -0.0697816 0.747038
LeftToes  5.72949e-011 5.22586e-011 2.45399e-011
682
root  85.5578 38.9955 19.3133 177.782 26.4212 176.877
RightUpLeg  -19.0452 -7.33215 -8.98783
RightLeg  53.2631 -2.18191 -3.51864
RightFoot  -3.38868 -1.20251 16.8519
RightToes  -5.8209e-011 0 -3.6325e-017
Spine  5.10761 -0.590338 -8.78201
Spine1  3.23491 -1.28667 0.0568873
HEad  6.60062 -5.0539 2.05823
LeftShoulder1  1.84928 -2.76985 -23.2073
LeftArm  7.28807 -29.4545 -31.4878
LeftForeArm  -17.4467 -54.7015 -17.3531
LeftHand  -0.345131 7.37381 -16.363
RightShoulder  8.66555 17.9786 34.3211
RightArm  -4.21436 12.5408 9.47488
RightForeArm  -34.7971 56.2142 19.4165
RightHand  -0.606721 -8.41574 20.1236
LeftUpLeg  -14.5547 9.23161 -1.45704
LeftLeg  16.2577 14.6643 -0.483159
LeftFoot  -0.809865 -0.0766659 0.885105
LeftToes  5.72949e-011 5.22586e-011 2.45399e-011
683
root  85.5248 39.1355 19.0123 178.443 26.5923 177.554
RightUpLeg  -20.5718 -7.47951 -8.51967
RightLeg  51.0741 -4.42871 -6.21193
RightFoot  -5.05381 -0.900366 15.6716
RightToes  -5.8209e-011 0 -3.6325e-017
Spine  5.41949 -0.683149 -7.95524
Spine1  3.28581 -1.31481 0.272869
HEad  6.9178 -5.64548 1.7848
LeftShoulder1  1.88118 -2.93135 -22.9507
LeftArm  7.21384 -30.842 -31.8135
LeftForeArm  -18.4187 -53.6563 -16.7428
LeftHand  -0.33579 7.31802 -16.3117
RightShoulder  8.73091 18.4453 33.757
RightArm  -4.36473 13.2193 9.43424
RightForeArm  -36.1448 55.4206 18.8987
RightHand  -0.647369 -8.59367 20.3806
LeftUpLeg  -13.9917 9.05028 -1.01873
LeftLeg  15.2392 14.9806 -0.691169
LeftFoot  -0.835926 -0.0851124 0.970454
LeftToes  5.72949e-011 5.22586e-011 2.45399e-011
684
root  85.5384 39.2836 18.7378 179.267 26.6638 178.228
RightUpLeg  -21.212 -6.92828 -7.82689
RightLeg  46.3129 -6.6362 -7.69154
RightFoot  -5.96404 -0.725137 14.5004
RightToes  -5.8209e-011 0 -3.6325e-017
Spine  5.52995 -0.790913 -7.36761
Spine1  3.35609 -1.39623 0.700614
HEad  7.25705 -6.24321 1.83613
LeftShoulder1  1.89512 -3.0505 -22.6146
LeftArm  7.43024 -32.1317 -32.3111
LeftForeArm  -18.9353 -52.9956 -16.3688
LeftHand  -0.338679 7.34538 -16.2464
RightShoulder  8.79393 18.8205 33.3654
RightArm  -4.54829 13.831 9.37575
RightForeArm  -37.8419 54.1758 18.1148
RightHand  -0.633026 -8.50624 20.45
LeftUpLeg  -13.4783 8.8278 -0.510412
LeftLeg  13.9215 15.244 -1.03653
LeftFoot  -0.654917 -0.0922557 1.0289
LeftToes  5.72949e-011 5.22586e-011 2.45399e-011
685
root  85.6033 39.3946 18.4999 -179.864 26.568 178.691
RightUpLeg  -21.0418 -5.54783 -7.23669
RightLeg  39.4344 -8.3549 -7.56171
RightFoot  -6.22737 -0.675263 14.1008
RightToes  -5.8209e-011 0 -3.6325e-017
Spine  5.52951 -0.889496 -7.19307
Spine1  3.35829 -1.51826 1.29106
HEad  7.56718 -6.77143 2.05035
LeftShoulder1  1.91126 -3.18755 -22.2437
LeftArm  7.70934 -33.5519 -32.7069
LeftForeArm  -19.5879 -52.1642 -15.9168
LeftHand  -0.329022 7.29195 -16.1544
RightShoulder  8.81051 19.0953 32.9553
RightArm  -4.47188 14.2753 9.34107
RightForeArm  -39.3935 53.2472 17.5746
RightHand  -0.668373 -8.63278 20.8292
LeftUpLeg  -13.2425 8.7672 -0.142337
LeftLeg  12.7771 15.2611 -1.45245
LeftFoot  -0.512444 -0.0956377 1.07108
LeftToes  5.72949e-011 5.22586e-011 2.45399e-011
686
root  85.6928 39.4766 18.2924 -179.116 26.2316 178.89
RightUpLeg  -20.1284 -4.01555 -6.9138
RightLeg  31.2772 -8.55087 -5.79603
RightFoot  -5.96838 -0.692926 13.8349
RightToes  -5.8209e-011 0 -3.6325e-017
Spine  5.62869 -1.05964 -7.1069
Spine1  3.30705 -1.69274 1.66709
HEad  7.64243 -7.22178 2.1471
LeftShoulder1  1.93422 -3.34826 -21.8896
LeftArm  8.33634 -35.5034 -32.8632
LeftForeArm  -20.8849 -50.7047 -15.1777
LeftHand  -0.31219 7.15587 -16.3546
RightShoulder  8.82386 19.3412 32.589
RightArm  -4.52906 14.728 9.33262
RightForeArm  -40.6452 52.506 17.1619
RightHand  -0.716006 -8.83519 21.1033
LeftUpLeg  -13.1795 8.66368 -0.0163109
LeftLeg  11.897 15.0223 -1.80727
LeftFoot  -0.435644 -0.0915948 1.01577
LeftToes  5.72949e-011 5.22586e-011 2.45399e-011
687
root  85.8264 39.526 18.1182 -178.447 25.6842 178.88
RightUpLeg  -18.5338 -2.43423 -6.71109
RightLeg  22.2728 -7.84592 -3.72636
RightFoot  -6.13071 -0.724274 14.9167
RightToes  -5.8209e-011 0 -3.6325e-017
Spine  5.63593 -1.21446 -7.24512
Spine1  3.40383 -1.90028 2.14346
HEad  7.41844 -7.76909 2.26979
LeftShoulder1  1.98189 -3.57539 -21.6441
LeftArm  9.10904 -37.6287 -32.9224
LeftForeArm  -22.6889 -48.8993 -14.3446
LeftHand  -0.304297 7.06416 -16.7203
RightShoulder  8.85189 19.6688 32.156
RightArm  -4.62688 15.2019 9.2723
RightForeArm  -41.3255 51.7277 16.7231
RightHand  -0.667165 -8.65297 20.6638
LeftUpLeg  -13.3135 8.57935 -0.0168063
LeftLeg  11.3122 14.5701 -2.15438
LeftFoot  -0.448478 -0.083129 0.900476
LeftToes  5.72949e-011 5.22586e-011 2.45399e-011
688
root  86.0029 39.54 17.9639 -178.039 24.9506 178.542
RightUpLeg  -16.3433 -1.73862 -6.51007
RightLeg  13.3269 -4.97231 -1.6753
RightFoot  -5.70406 -0.803536 15.4404
RightToes  -5.8209e-011 0 -3.6325e-017
Spine  5.49446 -1.38271 -7.39344
Spine1  3.83608 -2.04409 2.16253
HEad  7.18801 -8.36705 2.43437
LeftShoulder1  2.03534 -3.82132 -21.4218
LeftArm  10.4119 -40.2849 -33.1671
LeftForeArm  -24.4134 -46.1028 -13.1273
LeftHand  -0.226861 6.54073 -16.9784
RightShoulder  8.95521 20.1096 31.8699
RightArm  -4.59469 15.7234 9.28191
RightForeArm  -42.6892 50.6125 16.1363
RightHand  -0.73717 -8.94445 21.1021
LeftUpLeg  -13.4877 8.3223 -0.28762
LeftLeg  11.025 14.1192 -2.34268
LeftFoot  -0.458891 -0.0773318 0.841135
LeftToes  5.72949e-011 5.22586e-011 2.45399e-011
689
root  86.1603 39.7491 17.8268 -177.388 24.1432 178.867
RightUpLeg  -15.4672 -2.96041 -4.82483
RightLeg  8.84844 -1.38025 -1.0093
RightFoot  1.14607 -0.717089 6.6182
RightToes  -5.8209e-011 0 -3.6325e-017
Spine  5.46121 -1.38238 -6.29686
Spine1  4.34334 -2.2043 2.67873
HEad  7.07673 -9.10455 2.26614
LeftShoulder1  2.10576 -4.12366 -21.2336
LeftArm  12.3672 -42.8147 -33.7435
LeftForeArm  -26.4935 -43.0386 -11.9564
LeftHand  -0.168798 6.16033 -17.1272
RightShoulder  9.07764 20.6228 31.5575
RightArm  -4.42092 16.1622 9.33984
RightForeArm  -44.0335 49.205 15.4274
RightHand  -0.714884 -8.82065 21.1559
LeftUpLeg  -12.4715 8.05279 0.0868181
LeftLeg  8.25078 13.5636 -3.09933
LeftFoot  0.758826 -0.0998919 0.899351
LeftToes  5.72949e-011 5.22586e-011 2.45399e-011
